<svg width="101" height="101" viewBox="0 0 101 101" fill="none" xmlns="http://www.w3.org/2000/svg">
<path fill-rule="evenodd" clip-rule="evenodd" d="M37.6033 6.63686C43.9239 -2.21229 57.0758 -2.21229 63.3968 6.63686L64.4032 8.04566C65.5153 9.60307 67.3833 10.437 69.2852 10.2257L73.7704 9.72727C83.865 8.6057 92.3944 17.1351 91.2728 27.2294L90.7746 31.7147C90.5633 33.6169 91.3969 35.4846 92.9543 36.597L94.3633 37.6033C103.212 43.9239 103.212 57.0758 94.3633 63.3968L92.9543 64.4032C91.3969 65.5153 90.5633 67.3833 90.7746 69.2852L91.2728 73.7704C92.3944 83.865 83.865 92.3944 73.7704 91.2728L69.2852 90.7746C67.3833 90.5633 65.5153 91.3969 64.4032 92.9543L63.3968 94.3633C57.0758 103.212 43.9244 103.212 37.6033 94.3633L36.597 92.9543C35.4846 91.3969 33.6169 90.5633 31.7147 90.7746L27.2294 91.2728C17.1351 92.3944 8.6057 83.865 9.72727 73.7704L10.2257 69.2852C10.437 67.3833 9.60307 65.5153 8.04566 64.4032L6.63686 63.3968C-2.21229 57.0758 -2.21229 43.9244 6.63686 37.6033L8.04566 36.597C9.60307 35.4846 10.437 33.6169 10.2257 31.7147L9.72727 27.2294C8.6057 17.1351 17.1351 8.6057 27.2294 9.72727L31.7147 10.2257C33.6169 10.437 35.4846 9.60307 36.597 8.04566L37.6033 6.63686ZM70.0845 36.1986C72.1475 38.2617 72.1475 41.6068 70.0845 43.6698L49.9094 63.8448C47.3182 66.4366 43.1161 66.4366 40.5248 63.8448L30.9156 54.2357C28.8525 52.1727 28.8525 48.8275 30.9156 46.7645C32.9788 44.7015 36.3237 44.7015 38.3869 46.7645L45.2171 53.5948L62.6133 36.1986C64.6763 34.1355 68.0215 34.1355 70.0845 36.1986Z" fill="#4285F4"/>
</svg>
