<svg width="30" height="31" viewBox="0 0 30 31" fill="none" xmlns="http://www.w3.org/2000/svg">
<path fill-rule="evenodd" clip-rule="evenodd" d="M29.9887 10.7946C29.9859 10.7749 29.9813 10.7571 29.9784 10.7383C29.9719 10.7018 29.9653 10.6652 29.9559 10.6305C29.9503 10.609 29.9419 10.5883 29.9353 10.5677C29.925 10.5358 29.9147 10.5049 29.9025 10.474C29.8941 10.4524 29.8837 10.4308 29.8734 10.4112C29.8603 10.3812 29.8462 10.353 29.8294 10.3258C29.8181 10.3052 29.805 10.2855 29.7928 10.2658C29.7759 10.2387 29.7581 10.2124 29.7384 10.1871C29.7244 10.1683 29.7094 10.1496 29.6944 10.1318C29.6737 10.1074 29.6522 10.084 29.6297 10.0615C29.6128 10.0446 29.5969 10.0268 29.579 10.0118C29.5547 9.99022 29.5303 9.96959 29.5059 9.94991C29.4862 9.93491 29.4675 9.9199 29.4478 9.90584C29.4403 9.90115 29.4337 9.89459 29.4262 9.8899L15.7153 0.749277C15.2822 0.460527 14.7188 0.460527 14.2847 0.749277L0.574684 9.8899C0.567184 9.89459 0.560631 9.90115 0.553131 9.90584C0.532506 9.9199 0.513745 9.93491 0.494995 9.94991C0.469683 9.96959 0.445305 9.99022 0.421867 10.0118C0.404055 10.0268 0.387206 10.0446 0.370331 10.0615C0.347831 10.084 0.326237 10.1074 0.306549 10.1318C0.290612 10.1496 0.275636 10.1683 0.261574 10.1871C0.242824 10.2124 0.225005 10.2387 0.20813 10.2658C0.195005 10.2855 0.182819 10.3052 0.170631 10.3258C0.154694 10.353 0.140634 10.3812 0.126572 10.4112C0.117197 10.4308 0.106857 10.4524 0.0984192 10.474C0.0852942 10.5049 0.0750098 10.5358 0.0646973 10.5677C0.0581348 10.5883 0.0506384 10.609 0.0450134 10.6305C0.0356384 10.6652 0.0290692 10.7018 0.0225067 10.7383C0.0187567 10.7571 0.0140439 10.7749 0.0121689 10.7946C0.00466888 10.849 0 10.9052 0 10.9624V20.103C0 20.1593 0.00466888 20.2155 0.0121689 20.2718C0.0140439 20.2896 0.0187567 20.3083 0.0225067 20.3271C0.0290692 20.3637 0.0356384 20.3993 0.0450134 20.4349C0.0506384 20.4565 0.0581348 20.4771 0.0646973 20.4977C0.0750098 20.5287 0.0852942 20.5605 0.0984192 20.5924C0.106857 20.613 0.117197 20.6337 0.126572 20.6543C0.140634 20.6833 0.154694 20.7115 0.170631 20.7405C0.182819 20.7602 0.195005 20.7799 0.20813 20.7996C0.225005 20.8268 0.242824 20.8521 0.261574 20.8774C0.275636 20.8971 0.290612 20.9158 0.306549 20.9336C0.326237 20.9571 0.347831 20.9815 0.370331 21.003C0.387206 21.0208 0.404055 21.0377 0.421867 21.0536C0.445305 21.0752 0.469683 21.0958 0.494995 21.1155C0.513745 21.1305 0.532506 21.1455 0.553131 21.1596C0.560631 21.1643 0.567184 21.1708 0.574684 21.1755L14.2847 30.3162C14.5013 30.4605 14.7506 30.5327 15 30.5327C15.2494 30.5327 15.4987 30.4605 15.7153 30.3162L29.4262 21.1755C29.4337 21.1708 29.4403 21.1643 29.4478 21.1596C29.4675 21.1455 29.4862 21.1305 29.5059 21.1155C29.5303 21.0958 29.5547 21.0752 29.579 21.0536C29.5969 21.0377 29.6128 21.0208 29.6297 21.003C29.6522 20.9815 29.6737 20.9571 29.6944 20.9336C29.7094 20.9158 29.7244 20.8971 29.7384 20.8774C29.7581 20.8521 29.7759 20.8268 29.7928 20.7996C29.805 20.7799 29.8181 20.7602 29.8294 20.7405C29.8462 20.7115 29.8603 20.6833 29.8734 20.6543C29.8837 20.6337 29.8941 20.613 29.9025 20.5924C29.9147 20.5605 29.925 20.5287 29.9353 20.4977C29.9419 20.4771 29.9503 20.4565 29.9559 20.4349C29.9653 20.3993 29.9719 20.3637 29.9784 20.3271C29.9813 20.3083 29.9859 20.2896 29.9887 20.2718C29.9962 20.2155 30 20.1593 30 20.103V10.9624C30 10.9052 29.9962 10.849 29.9887 10.7946ZM16.2891 4.23115L26.3897 10.9643L21.8784 13.9821L16.2891 10.2433V4.23115ZM13.7109 4.23115V10.2433L8.12248 13.9821L3.61031 10.9643L13.7109 4.23115ZM2.57812 13.3755L5.80406 15.5327L2.57812 17.6899V13.3755ZM13.7109 26.8343L3.61031 20.1011L8.12248 17.0843L13.7109 20.8221V26.8343ZM15 18.5824L10.4409 15.5327L15 12.483L19.56 15.5327L15 18.5824ZM16.2891 26.8343V20.8221L21.8784 17.0843L26.3897 20.1011L16.2891 26.8343ZM27.4219 17.6899L24.1969 15.5327L27.4219 13.3755V17.6899Z" fill="#E7EDF3"/>
</svg>
