<svg width="150" height="150" viewBox="0 0 150 150" fill="none" xmlns="http://www.w3.org/2000/svg">
<path d="M8.13806 52.6667H142.308M52.8613 97.3333L67.7691 112.222L97.5846 82.4445M37.9536 8V22.8889M112.492 8V22.8889M31.9905 142H118.455C126.805 142 130.979 142 134.168 140.377C136.973 138.95 139.254 136.672 140.683 133.871C142.308 130.686 142.308 126.516 142.308 118.178V46.7111C142.308 38.3725 142.308 34.2033 140.683 31.0184C139.254 28.2168 136.973 25.9391 134.168 24.5117C130.979 22.8889 126.805 22.8889 118.455 22.8889H31.9905C23.6414 22.8889 19.4668 22.8889 16.2778 24.5117C13.4727 25.9391 11.1921 28.2168 9.76293 31.0184C8.13806 34.2033 8.13806 38.3725 8.13806 46.7111V118.178C8.13806 126.516 8.13806 130.686 9.76293 133.871C11.1921 136.672 13.4727 138.95 16.2778 140.377C19.4668 142 23.6413 142 31.9905 142Z" stroke="#438440" stroke-width="15" stroke-linecap="round" stroke-linejoin="round"/>
</svg>
