<svg width="30" height="31" viewBox="0 0 30 31" fill="none" xmlns="http://www.w3.org/2000/svg">
<path d="M15.0015 0.903955C6.71646 0.903955 0 7.62042 0 15.9055C0 22.4929 4.24656 28.0899 10.1517 30.1057L10.2578 30.1367C11.008 30.2777 11.2831 29.8146 11.2831 29.4154C11.2831 29.0593 11.2711 28.1149 11.2641 26.8655C7.0916 27.7708 6.21128 24.8527 6.21128 24.8527C5.92317 23.9274 5.33296 23.1671 4.55767 22.6679L4.54167 22.6589C3.18317 21.7286 4.6467 21.7476 4.6467 21.7476C5.63407 21.8866 6.46137 22.4659 6.93654 23.2782L6.94455 23.2932C7.49875 24.2885 8.54513 24.9508 9.74657 24.9508C10.3228 24.9508 10.863 24.7987 11.3292 24.5316L11.3131 24.5396C11.3852 23.7483 11.7343 23.0501 12.2625 22.5339L12.2635 22.5329C8.93227 22.1577 5.42999 20.8673 5.42999 15.1202C5.42999 15.0932 5.42899 15.0621 5.42899 15.0311C5.42899 13.5096 6.01621 12.1251 6.97656 11.0917L6.97356 11.0957C6.77048 10.5535 6.65244 9.92726 6.65244 9.27402C6.65244 8.49674 6.8185 7.75747 7.11761 7.09122L7.1036 7.12523C7.1036 7.12523 8.36007 6.72309 11.2291 8.6628C12.3535 8.34168 13.645 8.15661 14.9795 8.15661C16.314 8.15661 17.6055 8.34168 18.8299 8.68681L18.7299 8.6628C21.5799 6.72309 22.8364 7.12523 22.8364 7.12523C23.1215 7.76747 23.2875 8.51574 23.2875 9.30303C23.2875 9.94527 23.1775 10.5615 22.9744 11.1337L22.9864 11.0957C23.9398 12.1281 24.525 13.5126 24.525 15.0341C24.525 15.0651 24.525 15.0952 24.524 15.1252V15.1202C24.524 20.8833 21.0177 22.1517 17.6795 22.5209C18.3117 23.1681 18.7019 24.0534 18.7019 25.0308C18.7019 25.1238 18.6979 25.2169 18.6909 25.3089L18.6919 25.2969C18.6919 27.3046 18.6728 28.9172 18.6728 29.4044C18.6728 29.7985 18.9349 30.2667 19.7042 30.1167C25.7344 28.0869 30 22.4849 30 15.8854C30 7.61041 23.2915 0.902954 15.0175 0.902954C15.0115 0.902954 15.0045 0.902954 14.9985 0.902954H14.9995L15.0015 0.903955Z" fill="#E7EDF3"/>
</svg>
