<svg width="24" height="24" viewBox="0 0 24 24" fill="none" xmlns="http://www.w3.org/2000/svg">
<path fill-rule="evenodd" clip-rule="evenodd" d="M5.16363 12.0511C5.16363 11.289 5.29021 10.5583 5.51613 9.87299L1.56172 6.85326C0.791027 8.41806 0.356812 10.1813 0.356812 12.0511C0.356812 13.9194 0.790493 15.6815 1.56012 17.2453L5.51239 14.2197C5.28861 13.5375 5.16363 12.8095 5.16363 12.0511Z" fill="#FBBC05"/>
<path fill-rule="evenodd" clip-rule="evenodd" d="M12.1068 5.11779C13.7625 5.11779 15.2579 5.70445 16.4329 6.66445L19.8511 3.25112C17.7682 1.43779 15.0977 0.317787 12.1068 0.317787C7.46341 0.317787 3.47268 2.97325 1.56171 6.85325L5.51612 9.87299C6.42728 7.10712 9.02456 5.11779 12.1068 5.11779Z" fill="#EB4335"/>
<path fill-rule="evenodd" clip-rule="evenodd" d="M12.1068 18.9845C9.02456 18.9845 6.42728 16.9951 5.51612 14.2293L1.56171 17.2485C3.47268 21.129 7.46341 23.7845 12.1068 23.7845C14.9727 23.7845 17.7089 22.7669 19.7625 20.8602L16.0089 17.9583C14.9498 18.6255 13.6161 18.9845 12.1068 18.9845Z" fill="#34A853"/>
<path fill-rule="evenodd" clip-rule="evenodd" d="M23.3227 12.0511C23.3227 11.3578 23.2159 10.6111 23.0557 9.91779H12.1068V14.4511H18.4091C18.094 15.9967 17.2362 17.185 16.0089 17.9583L19.7625 20.8602C21.9197 18.8581 23.3227 15.8757 23.3227 12.0511Z" fill="#4285F4"/>
</svg>
