<svg width="150" height="150" viewBox="0 0 150 150" fill="none" xmlns="http://www.w3.org/2000/svg">
<path d="M114.474 35.5264H35.5264V114.474H114.474V35.5264Z" fill="white"/>
<path d="M114.474 150.001L150 114.474L132.237 111.444L114.474 114.474L111.231 130.722L114.474 150.001Z" fill="#EA4335"/>
<path d="M0 114.474V138.159C0 144.701 5.29934 150.001 11.8421 150.001H35.5263L39.174 132.237L35.5263 114.474L16.1714 111.444L0 114.474Z" fill="#188038"/>
<path d="M150 35.5263V11.8421C150 5.29934 144.701 0 138.158 0H114.474C112.312 8.81007 111.231 15.2936 111.231 19.4506C111.231 23.6076 112.312 28.9662 114.474 35.5263C122.331 37.7763 128.252 38.9012 132.237 38.9012C136.222 38.9012 142.143 37.7763 150 35.5263Z" fill="#1967D2"/>
<path d="M150 35.5264H114.474V114.474H150V35.5264Z" fill="#FBBC04"/>
<path d="M114.474 114.474H35.5264V150H114.474V114.474Z" fill="#34A853"/>
<path d="M114.474 0H11.8421C5.29934 0 0 5.29934 0 11.8421V114.474H35.5263V35.5263H114.474V0Z" fill="#4285F4"/>
<path d="M51.7204 96.7697C48.7697 94.7762 46.727 91.8651 45.6118 88.0164L52.4605 85.194C53.0822 87.5624 54.1678 89.398 55.7171 90.7006C57.2566 92.0032 59.1316 92.6447 61.3224 92.6447C63.5625 92.6447 65.4869 91.9637 67.0954 90.6019C68.704 89.2401 69.5132 87.5032 69.5132 85.4012C69.5132 83.2499 68.6645 81.4933 66.9671 80.1315C65.2698 78.7697 63.1382 78.0887 60.5921 78.0887H56.6349V71.3091H60.1875C62.3783 71.3091 64.2237 70.717 65.7237 69.5328C67.2237 68.3486 67.9737 66.7302 67.9737 64.6677C67.9737 62.8322 67.3026 61.3716 65.9605 60.2762C64.6184 59.1808 62.9211 58.6282 60.8586 58.6282C58.8454 58.6282 57.2467 59.1611 56.0625 60.2368C54.8791 61.3153 53.9894 62.677 53.477 64.194L46.6974 61.3716C47.5954 58.8256 49.2434 56.5756 51.6612 54.6315C54.079 52.6874 57.1678 51.7104 60.9178 51.7104C63.6908 51.7104 66.1875 52.2433 68.398 53.319C70.6086 54.3947 72.3454 55.8848 73.5987 57.7795C74.852 59.6841 75.4737 61.8157 75.4737 64.1841C75.4737 66.6019 74.8915 68.6447 73.727 70.3223C72.5625 71.9999 71.1316 73.2828 69.4342 74.1808V74.5855C71.6259 75.4891 73.5298 76.9732 74.9408 78.8782C76.3717 80.8026 77.0921 83.1019 77.0921 85.7861C77.0921 88.4703 76.4112 90.8684 75.0494 92.9703C73.6875 95.0723 71.8026 96.7302 69.4145 97.9341C67.0165 99.1381 64.3224 99.75 61.3322 99.75C57.8684 99.7598 54.6711 98.7631 51.7204 96.7697ZM93.7895 62.7828L86.2698 68.2203L82.5099 62.5164L96 52.7861H101.171V98.6841H93.7895V62.7828Z" fill="#4285F4"/>
</svg>
