<svg width="285" height="45" viewBox="0 0 285 45" fill="none" xmlns="http://www.w3.org/2000/svg">
<circle cx="22.5" cy="22.5" r="21.5" stroke="#B7B7B7" stroke-opacity="0.5" stroke-width="2"/>
<circle cx="142.5" cy="22.5" r="21.5" stroke="#B7B7B7" stroke-opacity="0.5" stroke-width="2"/>
<circle cx="262.5" cy="22.5" r="21.5" stroke="#B7B7B7" stroke-opacity="0.5" stroke-width="2"/>
<line x1="45" y1="22.5" x2="120" y2="22.5" stroke="#B7B7B7" stroke-opacity="0.5" stroke-width="2"/>
<line x1="165" y1="22.5" x2="240" y2="22.5" stroke="#B7B7B7" stroke-opacity="0.5" stroke-width="2"/>
<g clip-path="url(#clip0_33_4822)">
<path fill-rule="evenodd" clip-rule="evenodd" d="M18.7696 14.4H25.3948C25.4636 14.4 25.532 14.4044 25.6 14.4132C28.2968 14.6018 30.3909 16.8398 30.4 19.5432V27.258C30.39 30.1045 28.0769 32.4053 25.2304 32.4H18.7696C15.9226 32.4053 13.6093 30.1038 13.6 27.2568V19.5432C13.6093 16.6962 15.9226 14.3947 18.7696 14.4Z" stroke="#B7B7B7" stroke-width="1.75" stroke-linecap="round" stroke-linejoin="round"/>
<path d="M25.55 18.6432V19.4932H24.75V14.4632H26.45V18.5932H25.6H25.55V18.6432ZM24.7514 19.5932H25.55V20.3917C25.1204 20.3668 24.7764 20.0228 24.7514 19.5932ZM25.65 20.3932V19.5932H26.5H26.55V19.5432V18.6932H30.35V20.3932H25.65ZM31.25 19.5432C31.25 19.9958 30.8961 20.3659 30.45 20.3917V18.6946C30.8961 18.7205 31.25 19.0905 31.25 19.5432ZM25.65 18.6932H26.45V19.4932H25.65V18.6932ZM26.4485 14.3632H24.7514C24.7773 13.917 25.1473 13.5632 25.6 13.5632C26.0526 13.5632 26.4227 13.917 26.4485 14.3632ZM25.25 24C25.25 24.4526 24.8961 24.8227 24.45 24.8486V23.1514C24.8961 23.1773 25.25 23.5474 25.25 24ZM24.35 23.15V24.85H17.25V23.15H24.35ZM17.15 24.8486C16.7038 24.8227 16.35 24.4526 16.35 24C16.35 23.5474 16.7038 23.1773 17.15 23.1514V24.8486ZM21.65 20.4C21.65 20.8526 21.2961 21.2227 20.85 21.2485V19.5514C21.2961 19.5773 21.65 19.9473 21.65 20.4ZM20.75 19.55V21.25H17.25V19.55H20.75ZM17.15 21.2485C16.7038 21.2227 16.35 20.8526 16.35 20.4C16.35 19.9473 16.7038 19.5773 17.15 19.5514V21.2485ZM26.45 27.6C26.45 28.0526 26.0961 28.4227 25.65 28.4486V26.7514C26.0961 26.7773 26.45 27.1474 26.45 27.6ZM25.55 26.75V28.45H17.25V26.75H25.55ZM17.15 28.4486C16.7038 28.4227 16.35 28.0526 16.35 27.6C16.35 27.1474 16.7038 26.7773 17.15 26.7514V28.4486Z" fill="#B7B7B7" stroke="#B7B7B7" stroke-width="0.1"/>
</g>
<path d="M133.646 28.7083H151.354C151.63 28.7083 151.895 28.5986 152.091 28.4032C152.286 28.2079 152.396 27.9429 152.396 27.6667V15.1667C152.396 14.8904 152.286 14.6254 152.091 14.4301C151.895 14.2347 151.63 14.125 151.354 14.125H133.646C133.37 14.125 133.105 14.2347 132.909 14.4301C132.714 14.6254 132.604 14.8904 132.604 15.1667V27.6667C132.604 27.9429 132.714 28.2079 132.909 28.4032C133.105 28.5986 133.37 28.7083 133.646 28.7083ZM150.312 16.2083V26.625H134.687V16.2083" fill="#B7B7B7"/>
<path d="M152.917 30.7917H132.083C131.807 30.7917 131.542 30.9014 131.347 31.0968C131.151 31.2921 131.042 31.5571 131.042 31.8333C131.042 32.1096 131.151 32.3746 131.347 32.5699C131.542 32.7653 131.807 32.875 132.083 32.875H152.917C153.193 32.875 153.458 32.7653 153.653 32.5699C153.849 32.3746 153.958 32.1096 153.958 31.8333C153.958 31.5571 153.849 31.2921 153.653 31.0968C153.458 30.9014 153.193 30.7917 152.917 30.7917Z" fill="#B7B7B7"/>
<path d="M145.365 17.5625C145.18 17.382 144.938 17.2726 144.68 17.2535C144.423 17.2345 144.167 17.307 143.958 17.4583C143.833 17.5426 143.728 17.6546 143.653 17.7856C143.577 17.9166 143.533 18.0631 143.523 18.214C143.513 18.3649 143.537 18.5161 143.595 18.6559C143.652 18.7958 143.741 18.9206 143.854 19.0208L146.25 21.4167L143.854 23.8125C143.741 23.9127 143.652 24.0376 143.595 24.1774C143.537 24.3173 143.513 24.4684 143.523 24.6193C143.533 24.7702 143.577 24.9168 143.653 25.0478C143.728 25.1787 143.833 25.2907 143.958 25.375C144.167 25.5263 144.423 25.5988 144.68 25.5798C144.938 25.5607 145.18 25.4513 145.365 25.2708L148.437 22.1458C148.539 22.0531 148.619 21.9404 148.674 21.8149C148.73 21.6894 148.758 21.5538 148.758 21.4167C148.758 21.2795 148.73 21.1439 148.674 21.0184C148.619 20.8929 148.539 20.7802 148.437 20.6875L145.365 17.5625Z" fill="#B7B7B7"/>
<path d="M141.042 17.4583C140.833 17.307 140.577 17.2345 140.32 17.2535C140.062 17.2726 139.82 17.382 139.635 17.5625L136.563 20.6875C136.461 20.7802 136.381 20.8929 136.326 21.0184C136.27 21.1439 136.242 21.2795 136.242 21.4167C136.242 21.5538 136.27 21.6894 136.326 21.8149C136.381 21.9404 136.461 22.0531 136.563 22.1458L139.635 25.2708C139.82 25.4513 140.062 25.5607 140.32 25.5798C140.577 25.5988 140.833 25.5263 141.042 25.375C141.167 25.2907 141.272 25.1787 141.347 25.0478C141.423 24.9168 141.467 24.7702 141.477 24.6193C141.487 24.4684 141.463 24.3173 141.405 24.1774C141.348 24.0376 141.259 23.9127 141.146 23.8125L138.75 21.4167L141.146 19.0208C141.259 18.9206 141.348 18.7958 141.405 18.6559C141.463 18.5161 141.487 18.3649 141.477 18.214C141.467 18.0631 141.423 17.9166 141.347 17.7856C141.272 17.6546 141.167 17.5426 141.042 17.4583Z" fill="#B7B7B7"/>
<path d="M270.548 18.0204C271.247 16.9682 271.121 15.4174 270.266 14.5565C269.412 13.6956 268.151 13.8507 267.452 14.9029L259.666 26.6151L257.2 24.3385C256.316 23.5229 255.063 23.7433 254.4 24.8308C253.737 25.9184 253.916 27.4613 254.8 28.277L258.033 31.2613C259.319 32.4485 261.137 32.177 262.155 30.6457L270.548 18.0204Z" stroke="#B7B7B7" stroke-width="2" stroke-linecap="round"/>
<defs>
<clipPath id="clip0_33_4822">
<rect width="20" height="21" fill="white" transform="translate(12 13)"/>
</clipPath>
</defs>
</svg>
