<svg width="30" height="31" viewBox="0 0 30 31" fill="none" xmlns="http://www.w3.org/2000/svg">
<path fill-rule="evenodd" clip-rule="evenodd" d="M15 0.532715C10.9263 0.532715 10.4154 0.549982 8.81553 0.622982C7.21895 0.695802 6.12855 0.949395 5.17444 1.32023C4.18805 1.7035 3.35154 2.21641 2.51759 3.0503C1.68368 3.88425 1.17079 4.72076 0.787511 5.70715C0.41668 6.66127 0.163088 7.75167 0.0902667 9.34824C0.0172673 10.9482 0 11.459 0 15.5328C0 19.6065 0.0172673 20.1173 0.0902667 21.7173C0.163088 23.3138 0.41668 24.4043 0.787511 25.3583C1.17079 26.3448 1.68368 27.1813 2.51759 28.0152C3.35154 28.849 4.18805 29.362 5.17444 29.7453C6.12855 30.1161 7.21895 30.3697 8.81553 30.4426C10.4154 30.5154 10.9263 30.5327 15 30.5327C19.0738 30.5327 19.5846 30.5154 21.1845 30.4426C22.7811 30.3697 23.8714 30.1161 24.8256 29.7453C25.8119 29.362 26.6484 28.849 27.4825 28.0152C28.3163 27.1813 28.8293 26.3448 29.2126 25.3583C29.5834 24.4043 29.837 23.3138 29.9097 21.7173C29.9827 20.1173 30 19.6065 30 15.5328C30 11.459 29.9827 10.9482 29.9097 9.34824C29.837 7.75167 29.5834 6.66127 29.2126 5.70715C28.8293 4.72076 28.3163 3.88425 27.4825 3.0503C26.6484 2.21641 25.8119 1.7035 24.8256 1.32023C23.8714 0.949395 22.7811 0.695802 21.1845 0.622982C19.5846 0.549982 19.0738 0.532715 15 0.532715ZM10 15.5328C10 18.2942 12.2386 20.5328 15 20.5328C17.7615 20.5328 20.0001 18.2942 20.0001 15.5328C20.0001 12.7713 17.7615 10.5327 15 10.5327C12.2386 10.5327 10 12.7713 10 15.5328ZM7.29731 15.5328C7.29731 11.2786 10.7459 7.83002 15 7.83002C19.2541 7.83002 22.7027 11.2786 22.7027 15.5328C22.7027 19.7868 19.2541 23.2354 15 23.2354C10.7459 23.2354 7.29731 19.7868 7.29731 15.5328ZM23.007 9.32568C24.0012 9.32568 24.8071 8.51983 24.8071 7.5257C24.8071 6.53157 24.0012 5.72567 23.007 5.72567C22.013 5.72567 21.2071 6.53157 21.2071 7.5257C21.2071 8.51983 22.013 9.32568 23.007 9.32568Z" fill="#E7EDF3"/>
</svg>
