<svg width="30" height="31" viewBox="0 0 30 31" fill="none" xmlns="http://www.w3.org/2000/svg">
<path fill-rule="evenodd" clip-rule="evenodd" d="M30 30.5327H24V20.0342C24 17.1542 22.7295 15.5474 20.451 15.5474C17.9715 15.5474 16.5 17.2217 16.5 20.0342V30.5327H10.5V11.0327H16.5V13.2256C16.5 13.2256 18.3825 9.92236 22.6245 9.92236C26.868 9.92236 30 12.5119 30 17.8699V30.5327ZM3.663 7.91406C1.6395 7.91406 0 6.26116 0 4.22266C0 2.18566 1.6395 0.532715 3.663 0.532715C5.685 0.532715 7.32449 2.18566 7.32449 4.22266C7.32599 6.26116 5.685 7.91406 3.663 7.91406ZM0 30.5327H7.5V11.0327H0V30.5327Z" fill="#E7EDF3"/>
</svg>
