<svg width="135" height="42" viewBox="0 0 135 42" fill="none" xmlns="http://www.w3.org/2000/svg">
<circle cx="15.625" cy="22.6667" r="13.475" stroke="#B7B7B7" stroke-width="4.3"/>
<path d="M15.4167 17.4583L15.4167 27.875" stroke="#B7B7B7" stroke-width="4.3" stroke-linecap="round"/>
<path d="M15.4167 4.54163L15.4167 7.87496" stroke="#B7B7B7" stroke-width="4.3" stroke-linecap="round"/>
<path d="M18.3333 3.70831L12.5 3.70831" stroke="#B7B7B7" stroke-width="4.3" stroke-linecap="round"/>
<path d="M20.8333 22.4583L10.4166 22.4583" stroke="#B7B7B7" stroke-width="4.3" stroke-linecap="round"/>
<path d="M55.126 11.344V15.18H49.918V31H45.13V15.18H39.922V11.344H55.126ZM62.737 13.752C61.897 13.752 61.2063 13.5093 60.665 13.024C60.1423 12.52 59.881 11.904 59.881 11.176C59.881 10.4293 60.1423 9.81333 60.665 9.328C61.2063 8.824 61.897 8.572 62.737 8.572C63.5583 8.572 64.2303 8.824 64.753 9.328C65.2943 9.81333 65.565 10.4293 65.565 11.176C65.565 11.904 65.2943 12.52 64.753 13.024C64.2303 13.5093 63.5583 13.752 62.737 13.752ZM65.117 15.376V31H60.329V15.376H65.117ZM91.3228 15.208C93.2641 15.208 94.8041 15.796 95.9428 16.972C97.1001 18.148 97.6788 19.7813 97.6788 21.872V31H92.9188V22.516C92.9188 21.508 92.6481 20.7333 92.1068 20.192C91.5841 19.632 90.8561 19.352 89.9228 19.352C88.9894 19.352 88.2521 19.632 87.7108 20.192C87.1881 20.7333 86.9268 21.508 86.9268 22.516V31H82.1668V22.516C82.1668 21.508 81.8961 20.7333 81.3548 20.192C80.8321 19.632 80.1041 19.352 79.1708 19.352C78.2374 19.352 77.5001 19.632 76.9588 20.192C76.4361 20.7333 76.1748 21.508 76.1748 22.516V31H71.3868V15.376H76.1748V17.336C76.6601 16.6827 77.2948 16.1693 78.0788 15.796C78.8628 15.404 79.7494 15.208 80.7388 15.208C81.9148 15.208 82.9601 15.46 83.8748 15.964C84.8081 16.468 85.5361 17.1867 86.0588 18.12C86.6001 17.2613 87.3374 16.5613 88.2708 16.02C89.2041 15.4787 90.2214 15.208 91.3228 15.208ZM118.555 22.936C118.555 23.384 118.527 23.8507 118.471 24.336H107.635C107.71 25.3067 108.018 26.0533 108.559 26.576C109.119 27.08 109.801 27.332 110.603 27.332C111.798 27.332 112.629 26.828 113.095 25.82H118.191C117.93 26.8467 117.454 27.7707 116.763 28.592C116.091 29.4133 115.242 30.0573 114.215 30.524C113.189 30.9907 112.041 31.224 110.771 31.224C109.241 31.224 107.878 30.8973 106.683 30.244C105.489 29.5907 104.555 28.6573 103.883 27.444C103.211 26.2307 102.875 24.812 102.875 23.188C102.875 21.564 103.202 20.1453 103.855 18.932C104.527 17.7187 105.461 16.7853 106.655 16.132C107.85 15.4787 109.222 15.152 110.771 15.152C112.283 15.152 113.627 15.4693 114.803 16.104C115.979 16.7387 116.894 17.644 117.547 18.82C118.219 19.996 118.555 21.368 118.555 22.936ZM113.655 21.676C113.655 20.8547 113.375 20.2013 112.815 19.716C112.255 19.2307 111.555 18.988 110.715 18.988C109.913 18.988 109.231 19.2213 108.671 19.688C108.13 20.1547 107.794 20.8173 107.663 21.676H113.655ZM128.669 17.98C129.229 17.1213 129.929 16.4493 130.769 15.964C131.609 15.46 132.543 15.208 133.569 15.208V20.276H132.253C131.059 20.276 130.163 20.5373 129.565 21.06C128.968 21.564 128.669 22.46 128.669 23.748V31H123.881V15.376H128.669V17.98Z" fill="#B7B7B7"/>
</svg>
