<svg width="16" height="19" viewBox="0 0 16 19" fill="none" xmlns="http://www.w3.org/2000/svg">
<path d="M10.9215 18C10.9246 17.4637 10.9277 15.6023 10.9277 14.8653C10.9277 13.8003 10.5926 13.1034 10.2167 12.7507C12.5502 12.4676 15 11.5029 15 7.11459C15 5.86773 14.5953 4.84773 13.9232 4.04965C14.0309 3.76065 14.3902 2.5989 13.8188 1.0264C13.8188 1.0264 12.9409 0.719484 10.9402 2.19849C10.1029 1.94429 9.20776 1.81851 8.31747 1.81346C7.42707 1.81851 6.53202 1.9444 5.69464 2.19849C3.69394 0.719484 2.81614 1.0264 2.81614 1.0264C2.24469 2.5989 2.60407 3.76065 2.71169 4.04965C2.03961 4.84773 1.63494 5.86773 1.63494 7.11459C1.63494 11.5029 4.08464 12.4676 6.41815 12.7507C6.04237 13.1034 5.70713 13.8003 5.70713 14.8653C5.70713 15.6023 5.7103 17.4637 5.71337 18M1 13.4054C2.05178 13.4862 2.65825 14.5236 2.65825 14.5236C3.59309 16.2694 5.11102 15.7645 5.70755 15.473" stroke="#B7B7B7" stroke-width="1.5" stroke-linecap="round" stroke-linejoin="round"/>
</svg>
